<?xml version="1.0" encoding="utf-8"?>
<svg width="56px" height="56px" viewBox="0 0 56 56" version="1.1" xmlns:xlink="http://www.w3.org/1999/xlink" xmlns="http://www.w3.org/2000/svg">
  <g id="Group-5">
    <path d="M28 0C12.536 0 0 12.536 0 28C0 43.464 12.536 56 28 56C43.464 56 56 43.464 56 28C56 12.536 43.464 0 28 0ZM38.7716 12.7972C33.2667 6.76069 22 10.0381 22 10.0381L38.7716 27.3981C38.7716 27.3981 44.2765 18.8337 38.7716 12.7972ZM35.5788 43.1276L46.1753 43.1276L12.9131 9.9502L12.9947 20.1874L35.5788 43.1276ZM12.848 28.3828L12.5977 42.7212L27.5648 42.9824L12.848 28.3828Z" id="Ellipse-Difference-3" fill="#1D3944" fill-rule="evenodd" stroke="none" />
  </g>
</svg>